<svg width="36" height="35" viewBox="0 0 36 35" fill="none" xmlns="http://www.w3.org/2000/svg">
<path d="M32.8365 1.11511C32.2614 1.05086 31.6361 1.14548 31.0077 1.40706C30.229 1.72971 18.025 7.13678 6.6486 12.1807L2.88957 13.847C1.434 14.4687 0.699074 15.4796 0.699074 16.8413C0.699074 17.7947 1.08217 19.0878 2.90986 19.8498L9.2549 22.5273C9.80351 24.2608 11.0779 28.286 11.398 29.3561C11.5884 29.9905 12.0693 31.5885 13.2843 31.9623C13.5335 32.0515 13.7937 32.0976 14.0584 32.0976C14.8252 32.0976 15.3772 31.7218 15.6472 31.503L19.6801 27.9106L24.5783 32.6815C24.7669 32.8838 25.7655 33.9062 27.1067 33.9062C28.7805 33.9062 30.0501 32.4389 30.3147 31.0187C30.4585 30.2405 35.1826 5.26288 35.1826 5.26652C35.6067 3.26313 34.8442 2.22386 34.3544 1.7809C33.9347 1.40265 33.4119 1.17936 32.8365 1.11511ZM31.6906 5.05289C31.0381 8.49824 27.4812 27.304 26.9412 30.0147L19.7815 23.0399L14.9238 27.3729L16.2693 21.8293C16.2693 21.8293 25.5506 11.9344 26.1096 11.3584C26.5596 10.8971 26.6539 10.7355 26.6539 10.5751C26.6539 10.3617 26.5496 10.2083 26.3091 10.2083C26.0926 10.2083 25.7989 10.4267 25.6431 10.5287C23.6642 11.8281 15.2379 16.8843 11.0905 19.3692L5.07333 16.8378L7.99404 15.5454C15.4346 12.2459 28.6861 6.36903 31.6906 5.05289Z" fill="white"/>
</svg>
