<svg width="35" height="35" viewBox="0 0 35 35" fill="none" xmlns="http://www.w3.org/2000/svg">
<path d="M31.8182 0H3.18182C1.42386 0 0 1.42386 0 3.18182V31.8182C0 33.5761 1.42386 35 3.18182 35H31.8182C33.5761 35 35 33.5761 35 31.8182V3.18182C35 1.42386 33.5746 0 31.8182 0ZM29.7325 15.0722C29.5257 15.0914 29.3172 15.1041 29.1072 15.1041C26.7289 15.1041 24.6384 13.8822 23.4214 12.0321C23.4214 16.8828 23.4214 22.4032 23.4214 22.4954C23.4214 26.7671 19.9579 30.2289 15.6879 30.2289C11.4179 30.2272 7.95457 26.7639 7.95457 22.4939C7.95457 18.2222 11.4179 14.7604 15.6879 14.7604C15.8503 14.7604 16.0078 14.7747 16.1653 14.7843V18.5961C16.0061 18.5771 15.8518 18.5484 15.6879 18.5484C13.5084 18.5484 11.7409 20.3159 11.7409 22.4954C11.7409 24.675 13.5068 26.4425 15.6879 26.4425C17.8691 26.4425 19.7941 24.7243 19.7941 22.5447C19.7941 22.4572 19.8322 4.77432 19.8322 4.77432H23.4739C23.8159 8.03094 26.4457 10.6018 29.7325 10.8372V15.0722Z" fill="white"/>
</svg>
