<svg width="35" height="35" viewBox="0 0 35 35" fill="none" xmlns="http://www.w3.org/2000/svg">
<g clip-path="url(#clip0_3_22)">
<mask id="mask0_3_22" style="mask-type:luminance" maskUnits="userSpaceOnUse" x="0" y="0" width="35" height="35">
<path d="M35 0H0V35H35V0Z" fill="white"/>
</mask>
<g mask="url(#mask0_3_22)">
<path d="M20 0.0600036C20 0.0700037 20.18 1.7 20.4 3.67501C20.62 5.65 20.795 7.27 20.785 7.275C20.78 7.28001 18.915 5.805 16.635 3.99001L12.5 0.700003L12.045 0.775004C11.79 0.815 11.58 0.855001 11.575 0.860002C11.57 0.870005 12.935 2.62 14.605 4.75C16.28 6.88 17.645 8.64003 17.65 8.65504C17.65 8.66997 14.91 7.80003 11.565 6.72001C8.21497 5.64001 5.475 4.76001 5.47 4.76501C5.47 4.77 5.33 4.95 5.16 5.16L4.845 5.545L5.09 5.685C5.225 5.76 7.72 7.195 10.64 8.87002C13.56 10.55 15.94 11.93 15.93 11.94C15.92 11.95 12.385 12.235 8.07497 12.575C3.76 12.92 0.23 13.205 0.22 13.215C0.199999 13.23 0.434999 14.15 0.465 14.18C0.479999 14.195 3.97 14.595 8.22002 15.07C12.475 15.55 15.965 15.95 15.98 15.965C15.995 15.975 13.045 18.51 9.43001 21.595C5.81 24.68 2.845 27.22 2.83 27.24C2.82 27.26 2.965 27.495 3.155 27.76L3.505 28.25L3.915 28.025C4.14 27.905 7.78999 25.925 12.025 23.635C16.26 21.34 19.73 19.465 19.735 19.47C19.74 19.475 19.005 22.895 18.1 27.075C17.195 31.255 16.46 34.68 16.47 34.685C16.505 34.725 17.475 34.795 17.505 34.765C17.52 34.74 18.905 31.57 20.58 27.715C22.255 23.855 23.635 20.7 23.65 20.7C23.665 20.7 24.505 23.17 25.52 26.19C26.535 29.205 27.38 31.69 27.395 31.71C27.415 31.73 27.58 31.595 27.765 31.41L28.105 31.065L27.48 25.45C27.135 22.355 26.865 19.82 26.87 19.81C26.88 19.805 28.13 21.205 29.65 22.925C31.165 24.645 32.425 26.05 32.45 26.05C32.475 26.05 32.605 25.895 32.745 25.7L33 25.35L30.795 21.515C29.58 19.4 28.545 17.6 28.49 17.51L28.39 17.35L28.835 17.51C29.075 17.595 30.5 18.11 32 18.655L34.725 19.64L34.74 19.485C34.745 19.395 34.735 19.145 34.715 18.93L34.675 18.53L31.96 16.675C30.465 15.65 29.24 14.795 29.235 14.77C29.23 14.75 30.345 14.435 31.715 14.07C33.085 13.71 34.215 13.4 34.23 13.385C34.245 13.37 34.245 13.21 34.225 13.03L34.19 12.705L33.93 12.655C33.79 12.625 32.64 12.42 31.375 12.2C30.11 11.98 28.955 11.775 28.815 11.745L28.55 11.695L29.4 10.57C29.87 9.95502 30.63 8.94499 31.095 8.33001L31.945 7.21501L31.71 6.985L31.475 6.76001L29.1 7.87501C27.795 8.48502 26.72 8.98497 26.715 8.97999C26.7 8.97004 27.12 3.545 27.175 2.97L27.205 2.66001L27.045 2.605C26.915 2.56001 26.865 2.56001 26.82 2.61C26.79 2.645 26.06 3.85001 25.2 5.28501C24.34 6.72501 23.62 7.89997 23.605 7.89997C23.59 7.89997 22.87 6.16001 22.005 4.035C21.145 1.915 20.425 0.160004 20.405 0.140003C20.37 0.100004 20 0.0300036 20 0.0600036Z" fill="white"/>
</g>
</g>
<defs>
<clipPath id="clip0_3_22">
<rect width="35" height="35" fill="white"/>
</clipPath>
</defs>
</svg>
